<?xml version="1.0" standalone="no"?>
<!DOCTYPE svg PUBLIC "-//W3C//DTD SVG 20010904//EN"
 "http://www.w3.org/TR/2001/REC-SVG-20010904/DTD/svg10.dtd">
<svg version="1.0" xmlns="http://www.w3.org/2000/svg"
 width="700.000000pt" height="700.000000pt" viewBox="0 0 700.000000 700.000000"
 preserveAspectRatio="xMidYMid meet">

<g transform="translate(0.000000,700.000000) scale(0.100000,-0.100000)"
fill="#000000" stroke="none">
<path d="M2868 4203 c-151 -225 -359 -532 -461 -685 l-187 -276 0 -191 0 -191
465 0 465 0 0 -215 0 -215 200 0 c113 0 200 4 200 9 0 5 -19 20 -42 34 -62 36
-159 128 -213 200 -102 134 -160 295 -172 475 l-6 92 -224 0 c-122 0 -223 2
-223 5 0 4 286 426 444 655 l31 45 5 -450 6 -450 28 -90 c83 -272 291 -481
542 -545 94 -24 241 -26 334 -4 80 18 182 69 260 129 32 25 61 45 64 45 3 0 6
-34 6 -75 l0 -75 195 0 195 0 0 1090 0 1090 -195 0 -195 0 0 -385 c0 -212 -3
-385 -6 -385 -3 0 -25 17 -49 38 -60 52 -141 99 -227 130 -66 24 -86 27 -213
27 -128 0 -148 -3 -228 -29 -49 -16 -91 -34 -93 -40 -2 -6 -3 -132 -2 -280 l3
-270 38 62 c163 264 550 270 718 10 21 -34 43 -77 49 -97 77 -270 -29 -529
-248 -612 -117 -43 -267 -33 -367 25 -93 55 -182 176 -205 281 -7 33 -11 286
-10 787 l0 738 -203 0 -204 0 -275 -407z"/>
</g>
</svg>
